<?xml version="1.0" standalone="no"?><!DOCTYPE svg PUBLIC "-//W3C//DTD SVG 1.1//EN" "http://www.w3.org/Graphics/SVG/1.1/DTD/svg11.dtd"><svg t="1743688424662" class="icon" viewBox="0 0 1024 1024" version="1.1" xmlns="http://www.w3.org/2000/svg" p-id="7738" width="512" height="512" xmlns:xlink="http://www.w3.org/1999/xlink"><path d="M813.998119 85.373471H221.561618c-72.850423 0-132.455315 59.604892-132.455315 132.455315v592.436501c0 72.850423 59.604892 132.455315 132.455315 132.455315h592.436501c72.850423 0 132.455315-59.604892 132.455315-132.455315v-592.436501c0-72.850423-59.604892-132.455315-132.455315-132.455315zM428.793979 799.30762H282.852305c-11.439323 0-20.711195-9.271872-20.711195-20.711195V632.534337c0-18.42333 22.276576-27.695202 35.281279-14.690499l146.062089 146.062089c13.004704 13.125118 3.732832 35.401693-14.690499 35.401693zM794.731891 617.121355l-93.441204 147.025399c-7.947319 9.873942-23.239887 9.392286-30.585137-0.842897L220.237065 283.33396c-11.559737-16.25588 6.14111-37.207902 24.082784-28.538099L788.109125 587.619944c11.198495 5.418627 14.449671 19.868297 6.622766 29.501411z m10.837253-185.0762c0 18.42333-22.276576 27.695202-35.281279 14.690499L624.225776 300.673565c-13.004704-13.004704-3.853246-35.281279 14.690499-35.281279h146.062088c11.439323 0 20.711195 9.271872 20.711195 20.711195v145.941674z" fill="#F63F00" p-id="7739"></path></svg>